<svg font-family="-apple-system-body, ui-sans-serif, -apple-system, system-ui, &quot;Segoe UI&quot;, Helvetica, &quot;Apple Color Emoji&quot;, Arial, sans-serif, &quot;Segoe UI Emoji&quot;, &quot;Segoe UI Symbol&quot;" font-weight="400" data-d-component="svg" fill="currentColor" style="color:rgb(13, 13, 13)" viewBox="0 0 760 280" width="100%" xmlns="http://www.w3.org/2000/svg"><rect x="300" y="20" width="160" height="50" rx="10" fill="none" stroke="currentColor" stroke-width="2"/><text x="380" y="50" text-anchor="middle" font-size="18">Load Balancer</text><rect x="40" y="100" width="180" height="60" rx="10" fill="none" stroke="currentColor" stroke-width="2"/><text x="130" y="135" text-anchor="middle" font-size="16">Server A</text><rect x="290" y="100" width="180" height="60" rx="10" fill="none" stroke="currentColor" stroke-width="2"/><text x="380" y="135" text-anchor="middle" font-size="16">Server B</text><rect x="540" y="100" width="180" height="60" rx="10" fill="none" stroke="currentColor" stroke-width="2"/><text x="630" y="135" text-anchor="middle" font-size="16">Server C</text><path d="M380 70 L130 100" stroke="currentColor" stroke-width="2"/><path d="M380 70 L380 100" stroke="currentColor" stroke-width="2"/><path d="M380 70 L630 100" stroke="currentColor" stroke-width="2"/><rect x="40" y="190" width="180" height="60" rx="10" fill="none" stroke="currentColor"/><text x="130" y="225" text-anchor="middle" font-size="14">Memory: abc123</text><rect x="290" y="190" width="180" height="60" rx="10" fill="none" stroke="currentColor"/><text x="380" y="225" text-anchor="middle" font-size="14">Memory: empty</text><rect x="540" y="190" width="180" height="60" rx="10" fill="none" stroke="currentColor"/><text x="630" y="225" text-anchor="middle" font-size="14">Memory: empty</text><path d="M130 160 L130 190" stroke="currentColor" stroke-width="2"/><path d="M380 160 L380 190" stroke="currentColor" stroke-width="2"/><path d="M630 160 L630 190" stroke="currentColor" stroke-width="2"/></svg>